<?xml version="1.0" standalone="no"?><!-- Generator: Gravit.io --><svg xmlns="http://www.w3.org/2000/svg" xmlns:xlink="http://www.w3.org/1999/xlink" style="isolation:isolate" viewBox="391 -71.6 357 428.4" width="357" height="428.4"><path d="M 391 178.3 C 391 158.597 406.997 142.6 426.7 142.6 C 446.403 142.6 462.4 158.597 462.4 178.3 C 462.4 198.003 446.403 214 426.7 214 C 406.997 214 391 198.003 391 178.3 Z M 391 -35.9 C 391 23.21 438.99 71.2 498.1 71.2 C 498.1 71.2 498.1 71.2 498.1 71.2 C 500.18 71.2 502.247 71.141 504.292 71.003 C 504.269 71.068 504.245 71.134 504.222 71.2 L 605.2 71.2 L 605.2 142.6 L 533.8 142.6 C 514.097 142.6 498.1 158.597 498.1 178.3 C 498.1 198.003 514.097 214 533.8 214 L 533.8 214 L 569.5 214 L 640.9 214 L 640.9 214 C 660.603 214 676.6 229.997 676.6 249.7 C 676.6 269.403 660.603 285.4 640.9 285.4 C 621.197 285.4 605.2 301.397 605.2 321.1 C 605.2 340.803 621.197 356.8 640.9 356.8 C 700.01 356.8 748 308.81 748 249.7 C 748 211.798 728.269 178.468 698.531 159.424 C 707.299 143.904 712.3 125.981 712.3 106.9 C 712.3 47.79 664.31 -0.2 605.2 -0.2 C 605.2 -0.2 605.2 -0.2 605.2 -0.2 C 603.12 -0.2 601.053 -0.141 599.008 -0.003 C 599.031 -0.068 599.055 -0.134 599.078 -0.2 L 498.1 -0.2 L 498.1 -35.9 L 462.4 -35.9 C 462.4 -55.603 446.403 -71.6 426.7 -71.6 C 406.997 -71.6 391 -55.603 391 -35.9 Z M 462.4 -35.9 C 462.4 -16.197 478.397 -0.2 498.1 -0.2 L 498.1 -35.9 L 462.4 -35.9 Z M 599.008 -0.003 L 599.008 -0.003 Z M 605.2 71.2 C 624.903 71.2 640.9 87.197 640.9 106.9 C 640.9 126.603 624.903 142.6 605.2 142.6 L 605.2 71.2 Z M 599.008 -0.003 L 599.008 -0.003 Z" style="stroke:none;fill:#00C2FF;stroke-miterlimit:10;fill-rule:evenodd;"/></svg>